<svg width="48" height="29" viewBox="0 0 48 29" fill="none" xmlns="http://www.w3.org/2000/svg">
  <path
    d="M14.3521 7.21294C14.5706 6.83094 14.9319 6.55388 15.3562 6.44053C15.4948 6.40275 15.6419 6.38596 15.7805 6.38596C16.0704 6.38596 16.3561 6.46152 16.6082 6.60425L17.3518 7.03243V0.513184L3.9289 0.513184V5.57998H10.2433V16.5657C10.2433 17.6866 10.2223 18.6101 10.1845 19.3321C10.1467 20.0541 9.99125 20.7216 9.70557 21.3261C9.40728 21.9432 8.91154 22.4259 8.21414 22.7701C7.51674 23.1186 6.51685 23.2907 5.22288 23.2907C4.22299 23.2907 3.40375 23.1941 2.76096 23.001C2.11818 22.8121 1.5048 22.6022 0.912428 22.3797H0.240234L0.240234 27.9503C1.09308 28.1182 2.08037 28.2525 3.20209 28.3491C4.32802 28.4414 5.52116 28.4834 6.79413 28.4834C8.67207 28.4834 10.2433 28.2735 11.5205 27.8453C12.7893 27.4213 13.8732 26.8169 14.7764 26.0403C15.6293 25.314 16.2721 24.4241 16.7048 23.3704C17.1333 22.3168 17.3518 21.1834 17.3518 19.9744V19.1096L16.6082 19.5378C16.3561 19.6805 16.0704 19.7603 15.7805 19.7603C15.6419 19.7603 15.4948 19.7393 15.3562 19.7015C14.9319 19.5882 14.5706 19.3069 14.3521 18.9333L12.7977 16.2425C12.6506 15.9822 12.5792 15.6968 12.5792 15.4155C12.5792 14.8446 12.8733 14.2863 13.4068 13.9799L14.9865 13.0647L13.4068 12.1496C12.6128 11.6962 12.3439 10.6804 12.7977 9.89116L14.3521 7.20035V7.21294Z"
    fill="#142AE9" />
  <path
    d="M46.4964 14.7693C45.4923 13.5771 43.9295 12.641 41.8205 11.9483C40.7492 11.5999 39.7451 11.327 38.8124 11.1339C37.8797 10.9366 36.9093 10.731 35.8968 10.5211C34.3549 10.1978 33.3088 9.84521 32.7543 9.45901C32.4728 9.26591 32.2669 9.03083 32.1241 8.74957C31.9896 8.47252 31.9182 8.14928 31.9182 7.78827C31.9182 7.30552 32.0905 6.87734 32.4392 6.50373C32.7837 6.12592 33.1954 5.84467 33.6743 5.65996C34.2205 5.43748 34.7834 5.28636 35.3716 5.2066C35.9556 5.12684 36.5479 5.08486 37.1403 5.08486C38.8208 5.08486 40.4635 5.3871 42.0767 5.9832C43.6858 6.58349 45.047 7.32651 46.1561 8.21645H46.9165V1.86931C45.6226 1.34038 44.0849 0.899611 42.3162 0.546992C40.5475 0.194373 38.7494 0.0180664 36.9387 0.0180664C33.3214 0.0180664 30.3596 0.832446 28.0615 2.45281C26.1499 3.80032 25.0324 5.47526 24.7089 7.47343L26.2046 6.60868C26.4566 6.46595 26.7423 6.39039 27.0322 6.39039C27.175 6.39039 27.3179 6.40718 27.4565 6.44496C27.8808 6.5625 28.2421 6.83956 28.4606 7.21736L30.0151 9.90818C30.473 10.6974 30.1999 11.7091 29.4101 12.1666L27.8262 13.0817L29.4101 13.9969C29.7924 14.2152 30.0697 14.5804 30.1789 15.0002C30.2293 15.1723 30.2461 15.357 30.2293 15.5291C30.2167 15.7642 30.1495 15.995 30.0403 16.2091C30.389 16.3435 30.7503 16.4778 31.1368 16.6037C32.1493 16.9354 33.2332 17.2124 34.3885 17.4265C35.5439 17.6406 36.6362 17.8715 37.6739 18.1192C38.6612 18.35 39.4132 18.6901 39.9257 19.1266C40.4341 19.5632 40.6903 20.0837 40.6903 20.6882C40.6903 21.3431 40.5181 21.8342 40.1652 22.1701C39.8123 22.5017 39.367 22.7788 38.8208 23.0012C38.3797 23.1734 37.8041 23.2993 37.0983 23.3748C36.3967 23.4504 35.8295 23.484 35.3926 23.484C33.7163 23.484 31.9686 23.1692 30.1453 22.5395C28.3262 21.9098 26.6793 21.0115 25.2089 19.8403H24.6123V20.4699C24.6123 20.7386 24.5451 20.9947 24.4316 21.2172V26.4435C25.9147 27.0648 27.5027 27.5727 29.2 27.9715C30.8973 28.3703 32.8845 28.5718 35.1699 28.5718C39.1149 28.5718 42.2448 27.7238 44.5471 26.0279C46.8535 24.332 48.0005 22.1239 48.0005 19.4121C48.0005 17.5147 47.4963 15.9699 46.4922 14.7777L46.4964 14.7693Z"
    fill="#142AE9" />
  <path
    d="M27.3128 14.6893L28.5857 15.424L28.5437 15.4953L27.0313 18.1148L22.9645 15.7682V20.4572H19.8514V15.7682L17.3559 17.2038L15.7846 18.1148L14.2344 15.424L17.3559 13.6189L18.2969 13.0774L17.3559 12.5358L14.2344 10.7308L15.7846 8.03995L17.3559 8.94669L19.8514 10.3865V5.69336H22.9645V10.3865L24.6282 9.42524L27.0313 8.03995L28.5857 10.7308L25.4726 12.5232L24.5189 13.0774L27.3128 14.6893Z"
    fill="#142AE9" />
</svg>